<svg xmlns="http://www.w3.org/2000/svg" width="400" height="400">
    <g fill-rule="evenodd">
        <path d="M124 .62c-1.717.761-5.6 4.778-5.6 5.793 0 .407-.18.851-.4.987-.549.339-.549 36.861 0 37.2.22.136.4 1.036.4 2s.18 1.864.4 2c.22.136.4.629.4 1.095 0 .901.665 3.244 1.249 4.4.193.382.351 1.057.351 1.5 0 .443.18.805.4.805.22 0 .4.36.4.8 0 .44.18.8.4.8.22 0 .4.525.4 1.167 0 .641.135 1.226.3 1.3.165.073.748 1.033 1.297 2.133.972 1.952 3.969 7.001 4.391 7.4.117.11.932 1.099 1.812 2.198 1.882 2.351 8.853 9.402 9.295 9.402.168.001.845.466 1.505 1.035.66.569 1.695 1.328 2.3 1.686.605.358 1.1.803 1.1.989 0 .185.16.239.355.118.195-.121.577.049.849.376.272.328.727.596 1.012.596.284 0 .577.135.651.3.21.474 4.332 2.587 4.339 2.225.003-.179.138-.143.3.079.451.619 4.698 2.246 6.493 2.487.881.118 1.601.371 1.601.562 0 .191.649.347 1.442.347 1.782 0 1.622 2.341-.641 9.4-.494 1.54-.934 2.98-.979 3.2-.044.22-.382 1.097-.751 1.949-.369.852-.671 1.797-.671 2.1 0 .303-.18.551-.4.551-.22 0-.4.234-.4.52 0 .736-.941 2.673-1.3 2.677-.165.002-.3.281-.3.62 0 .339-.36 1.003-.8 1.475-.44.472-.8 1.095-.8 1.383 0 .289-.18.525-.4.525-.22 0-.4.36-.4.8 0 .44-.15.8-.332.8-.183 0-.587.495-.898 1.1-.31.605-.844 1.37-1.186 1.7-.342.33-1.047 1.23-1.567 2-1.218 1.806-10.248 10.8-10.843 10.8-.249 0-.93.495-1.514 1.1-.583.605-1.555 1.355-2.16 1.668-.605.312-1.1.717-1.1.9 0 .182-.36.332-.8.332-.44 0-.8.136-.8.302 0 .167-.585.557-1.3.868-.715.311-1.39.67-1.5.798-1.059 1.229-3.91 2.032-7.214 2.032-1.946 0-3.645.172-3.775.383-.13.21-.467.294-.749.185-.681-.261-6.662.79-7.722 1.357-.459.246-.935.347-1.057.224-.123-.122-.822-.03-1.553.205-4.889 1.573-6.576 2.182-6.91 2.493-.209.194-.783.353-1.276.353s-1.008.18-1.144.4c-.136.22-.597.4-1.024.4-.427 0-.776.18-.776.4 0 .22-.266.4-.59.4-.325 0-1.18.359-1.9.799-.721.439-1.625.799-2.01.8-.385 0-.7.181-.7.401 0 .22-.32.4-.712.4-.391 0-.971.36-1.288.8-.317.44-.897.8-1.288.8-.392 0-.712.158-.712.351 0 .194-.54.576-1.2.849-.66.273-1.2.655-1.2.849 0 .193-.32.351-.712.351-.391 0-.971.36-1.288.8-.317.44-.807.8-1.088.8-.282 0-.512.18-.512.4 0 .22-.178.4-.395.4-.37 0-.692.234-2.939 2.132-2.558 2.162-6.531 5.814-7.434 6.834-.567.642-1.977 2.123-3.132 3.292-1.155 1.168-2.1 2.309-2.1 2.533 0 .225-.18.409-.4.409a.41.41 0 0 0-.4.417c0 .229-.365.809-.812 1.288-1.227 1.317-4.388 6.089-4.388 6.624 0 .259-.18.471-.4.471-.22 0-.4.32-.4.712 0 .391-.36.971-.8 1.288-.44.317-.8.897-.8 1.288 0 .392-.18.712-.4.712-.22 0-.4.236-.4.525 0 .522-.93 2.679-2.419 5.613-.43.846-.781 1.881-.781 2.3 0 .419-.18.762-.4.762-.22 0-.4.362-.4.805 0 .443-.159 1.118-.353 1.5-1.003 1.972-1.414 3.341-1.92 6.399-.118.717-.376 1.402-.571 1.523-.196.121-.356.894-.356 1.717 0 .823-.164 1.667-.365 1.876-1.098 1.144-1.71 39.14-.676 41.98.32.88.703 2.77.851 4.2.744 7.207 4.138 17.333 7.464 22.272.619.92 1.126 1.85 1.126 2.067 0 .217.135.454.3.528.165.073.924 1.033 1.688 2.133 1.668 2.406 3.454 4.457 6.441 7.4 3.422 3.372 7.63 6.8 8.348 6.8.232 0 .424.135.426.3.002.165.407.497.9.738.493.241 2.26 1.185 3.927 2.097 4.469 2.447 8.941 4.014 16.17 5.669 8.509 1.948 20.023 1.159 29.4-2.013 5.291-1.79 14.319-6.41 15.6-7.984.11-.135.83-.677 1.6-1.204 4.962-3.397 12.639-12.542 15.617-18.603.541-1.1 1.118-2.06 1.283-2.133.165-.074.3-.355.3-.625 0-.271.36-1.237.8-2.148.44-.91.8-1.923.8-2.251 0-.328.18-.707.4-.843.22-.136.4-.676.4-1.2 0-.524.16-1.052.356-1.173.195-.121.457-.806.581-1.523.124-.717.344-1.889.489-2.604l.265-1.3h36.122c37.764 0 37.387-.013 37.387 1.314 0 .847.141 1.353 1.645 5.886 1.01 3.044 3.074 7.922 3.555 8.4.111.11.466.74.79 1.4 6.483 13.218 23.351 25.619 38.81 28.533 1.21.228 3.159.607 4.331.841 2.799.56 12.768.546 15.845-.021 7.513-1.387 12.77-3.03 17.949-5.608 5.041-2.51 5.069-2.526 5.072-2.845.002-.165.239-.3.528-.3.288 0 .873-.32 1.3-.711.426-.391 1.405-1.151 2.175-1.688 5.709-3.987 14.866-14.629 16.264-18.901.126-.385.388-.7.583-.7.194 0 .353-.265.353-.588 0-.323.331-1.178.735-1.9 1.727-3.08 4.083-10.842 4.698-15.473.157-1.188.516-2.198.823-2.316.68-.261.822-40.704.144-41.123-.22-.136-.4-1.317-.4-2.624 0-1.307-.162-2.376-.36-2.376-.198 0-.459-.765-.581-1.7-.425-3.26-.75-4.709-1.103-4.927-.196-.121-.356-.84-.356-1.597s-.18-1.376-.4-1.376c-.22 0-.4-.45-.4-1s-.18-1-.4-1c-.22 0-.4-.54-.4-1.2 0-.66-.18-1.2-.4-1.2-.22 0-.4-.36-.4-.8 0-.44-.18-.8-.4-.8-.22 0-.4-.355-.4-.788 0-.433-.36-1.429-.8-2.212-.44-.783-.8-1.689-.8-2.012 0-.323-.18-.588-.4-.588-.22 0-.4-.36-.4-.8 0-.44-.18-.8-.4-.8-.22 0-.4-.32-.4-.712 0-.391-.36-.971-.8-1.288-.44-.317-.8-.785-.8-1.04 0-.853-3.402-6.169-5.1-7.969-.495-.525-.9-1.141-.9-1.368 0-.922-13.07-14.023-13.99-14.023-.23 0-.982-.54-1.673-1.2-.691-.66-1.459-1.2-1.708-1.2-.249 0-.712-.36-1.029-.8-.317-.44-.814-.8-1.105-.8-.291 0-.915-.36-1.387-.8-.472-.44-1.095-.8-1.383-.8-.289 0-.525-.18-.525-.4 0-.22-.32-.4-.712-.4-.391 0-.971-.36-1.288-.8-.317-.44-.897-.8-1.288-.8-.392 0-.712-.18-.712-.4 0-.22-.36-.4-.8-.4-.44 0-.8-.18-.8-.4 0-.22-.36-.4-.8-.4-.44 0-.8-.18-.8-.4 0-.22-.272-.4-.605-.4-.333 0-.918-.165-1.3-.367-1.674-.885-4.535-2.033-5.067-2.033-.319 0-.692-.18-.828-.4-.136-.22-.599-.4-1.029-.4-.43 0-1.094-.171-1.476-.38-1.513-.828-8.894-2.451-11.895-2.616-1.1-.061-2.09-.152-2.2-.202-.11-.051-18.38-.117-40.6-.147l-40.4-.055-.2-60-.2-60-.996-1.4c-2.021-2.839-10.679-10.8-11.746-10.8-.16 0-.678-.36-1.15-.8-.472-.44-1.095-.8-1.383-.8-.289 0-.525-.18-.525-.4 0-.22-.236-.4-.525-.4-.288 0-.911-.36-1.383-.8-.472-.44-1.136-.8-1.475-.8-.339 0-.617-.18-.617-.4 0-.22-.349-.4-.776-.4-.427 0-.888-.18-1.024-.4-.136-.22-.687-.4-1.224-.4-.537 0-.977-.135-.979-.3-.004-.401-1.978-1.3-2.853-1.3-.383 0-.808-.18-.944-.4-.136-.22-.766-.4-1.4-.4-.634 0-1.264-.18-1.4-.4-.136-.22-.777-.4-1.424-.4-.647 0-1.176-.15-1.176-.333 0-.893-40.811-1.128-42.8-.247m-12.8 236.496c11.432 5.543 7.433 22.351-5.279 22.191-9.354-.118-14.669-11.145-8.972-18.614 3.326-4.361 9.459-5.9 14.251-3.577m187.433-.162c8.059 3.753 9.362 14.737 2.38 20.063-7.881 6.011-18.981.46-19.007-9.506-.022-8.313 9.06-14.08 16.627-10.557M46 290.8c0 .22-.36.4-.8.4-.44 0-.8.18-.8.4 0 .22-.266.4-.591.4-.638 0-9.022 4.986-10.157 6.039-.379.352-.889.712-1.133.8-1.075.388-13.319 11.948-13.319 12.575 0 .132-.628.902-1.397 1.713-.768.81-1.398 1.584-1.4 1.719-.001.135-.541.855-1.199 1.6-.658.745-1.3 1.669-1.427 2.054-.127.385-.399.7-.604.7-.205 0-.373.153-.373.34 0 .187-.99 1.982-2.2 3.989-1.21 2.007-2.2 3.798-2.2 3.98 0 .589-.991 2.485-1.3 2.488-.165.002-.3.363-.3.803 0 .44-.18.8-.4.8-.22 0-.4.45-.4 1s-.18 1-.4 1c-.22 0-.4.45-.4 1s-.18 1-.4 1c-.22 0-.4.54-.4 1.2 0 .66-.18 1.2-.4 1.2-.22 0-.4.439-.4.976 0 .537-.18 1.088-.4 1.224-.22.136-.4.777-.4 1.424 0 .647-.16 1.176-.356 1.176-.338 0-.555.872-1.069 4.3-.123.825-.438 1.932-.7 2.46-.784 1.585-.668 43.143.125 44.673.772 1.488 3.479 4.195 4.967 4.967 1.577.818 45.062.914 45.333.1.106-.318.955-.5 2.333-.5 1.192 0 2.167-.18 2.167-.4 0-.22.529-.4 1.176-.4.647 0 1.288-.18 1.424-.4.136-.22.777-.4 1.424-.4.647 0 1.176-.18 1.176-.4 0-.22.54-.4 1.2-.4.66 0 1.2-.18 1.2-.4 0-.22.529-.4 1.176-.4.647 0 1.288-.18 1.424-.4.136-.22.597-.4 1.024-.4.427 0 .776-.18.776-.4 0-.22.36-.4.8-.4.44 0 .8-.18.8-.4 0-.22.36-.4.8-.4.44 0 .8-.18.8-.4 0-.22.45-.4 1-.4s1-.18 1-.4c0-.22.335-.4.744-.4s1.407-.45 2.218-1c.81-.55 1.568-1 1.684-1 .115 0 .962-.51 1.882-1.133a47.414 47.414 0 0 1 3.472-2.1c.99-.532 2.461-1.642 3.269-2.467.807-.825 1.662-1.5 1.9-1.5.237 0 .431-.18.431-.4 0-.22.177-.4.393-.4.411 0 2.41-1.662 3.546-2.948.364-.412 1.973-2.101 3.577-3.753 3.564-3.671 3.665-3.377-2.166-6.299-2.634-1.32-5.349-2.805-6.032-3.3-.683-.495-1.361-.9-1.508-.9-.284 0-3.876-2.382-4.21-2.793-.11-.135-.83-.684-1.6-1.221-4.521-3.148-11.641-10.052-15.044-14.586-.99-1.32-2.024-2.674-2.296-3.009-1.192-1.463-3.06-4.371-3.06-4.763 0-.235-.18-.428-.4-.428-.22 0-.4-.193-.4-.428s-.54-1.213-1.2-2.172c-.66-.959-1.2-1.841-1.2-1.959 0-.119-.719-1.687-1.597-3.484-4.685-9.587-7.603-22.049-7.603-32.47 0-2.982-.109-5.706-.243-6.054-.265-.691-1.357-.879-1.357-.233m306.085 5.8c-.052 3.08-.186 6.32-.3 7.2-.176 1.366-.144 1.459.215.639.253-.58.372-3.44.299-7.2l-.121-6.239-.093 5.6m-1.018 11.347c-.169 1.18-.22 2.234-.113 2.341.295.294.736-2.452.568-3.536-.09-.582-.267-.118-.455 1.195M150.6 306.98c-4.689 1.392-6.926 3.659-8.539 8.648-.331 1.027-.461 9.824-.461 31.3V376.8h22.823l-.111-31.1-.112-31.1-1.059-1.8c-2.854-4.848-7.912-7.195-12.541-5.82m47-.009c-2.842.751-3.701 1.224-5.515 3.038-3.71 3.71-3.685 3.458-3.685 37.622V376.8h23.2v-30.605c0-17.759-.154-30.897-.366-31.3-.202-.382-.663-1.375-1.024-2.205-.841-1.932-2.968-4.059-4.9-4.9-.83-.361-1.823-.822-2.205-1.024-.906-.478-3.252-.391-5.505.205m46.6-.069c-3.574 1.242-5.344 2.613-7.356 5.698l-1.044 1.6-.2 31.3-.2 31.3h23v-30.054c0-21.847-.129-30.503-.471-31.7-1.68-5.877-8.541-9.947-13.729-8.144m106.249 4.298c-.033.33-.16 1.05-.282 1.6-.192.864-.16.903.232.288.249-.391.376-1.111.282-1.6-.095-.488-.199-.618-.232-.288m-1.049 4.4c-.15.473-.183.95-.073 1.06.11.11.323-.187.473-.66.15-.473.183-.95.073-1.06-.11-.11-.323.187-.473.66m-1.614 5.485c-.615 1.933-1.268 3.686-1.452 3.895-.184.209-.329.659-.322 1 .011.558.049.558.377-.003.625-1.068 2.915-8.007 2.71-8.212-.107-.107-.698 1.387-1.313 3.32m-4.034 9.615c-4.799 9.728-16.707 24.511-22.502 27.934-.687.406-1.25.88-1.25 1.052 0 .173-.255.314-.567.314-.311 0-.626.149-.7.33-.187.464-6.206 4.47-6.715 4.47a.427.427 0 0 0-.418.433c0 .388.82-.023 4-2.009 6.5-4.058 16.183-13.189 20.386-19.224.537-.77 1.086-1.49 1.221-1.6.535-.435 2.793-3.97 2.793-4.372 0-.235.135-.429.3-.431.165-.002.499-.407.743-.9.244-.493 1.19-2.273 2.103-3.956 1.74-3.205 2.982-5.941 2.697-5.941-.092 0-1.033 1.755-2.091 3.9M307.8 367.237c-1.54.846-2.593 1.543-2.341 1.55.517.015 4.933-2.237 5.521-2.814.73-.717-.372-.279-3.18 1.264m-4.6 2.363c-.77.422-1.211.774-.98.783.634.026 2.573-.94 2.577-1.283.004-.386.044-.398-1.597.5" fill="#83cbec"/><path d="M235.3.288c-1.155.084-2.1.324-2.1.533 0 .208-.72.379-1.6.379-.88 0-1.6.18-1.6.4 0 .22-.54.4-1.2.4-.66 0-1.2.18-1.2.4 0 .22-.45.4-1 .4s-1 .18-1 .4c0 .22-.439.4-.976.4-.537 0-1.088.18-1.224.4-.136.22-.597.4-1.024.4-.427 0-.776.18-.776.4 0 .22-.36.4-.8.4-.44 0-.8.18-.8.4 0 .22-.36.4-.8.4-.44 0-.8.18-.8.4 0 .22-.236.4-.525.4-.288 0-.911.36-1.383.8-.472.44-1.048.8-1.279.8-.506 0-4.557 2.786-4.746 3.264a.585.585 0 0 1-.505.336c-.559 0-9.56 9.115-9.575 9.696-.008.313-.214.239-.544-.196-.292-.385-.668-.7-.836-.7-.168 0-.058.298.244.661.458.552.582 10.618.749 60.7l.2 60.039 34.6.1c19.03.055 35.68-.047 37-.227l2.4-.328-1.7-.767c-.935-.422-1.7-.904-1.7-1.072 0-.168-.36-.306-.8-.306-.44 0-.8-.18-.8-.4 0-.22-.32-.4-.712-.4-.391 0-.971-.36-1.288-.8-.317-.44-.897-.8-1.288-.8-.392 0-.712-.18-.712-.4 0-.22-.248-.4-.552-.4-.303 0-1.293-.72-2.2-1.6-.907-.88-1.801-1.6-1.986-1.6-.441 0-9.262-8.821-9.262-9.262 0-.185-.72-1.079-1.6-1.986-.88-.907-1.6-1.897-1.6-2.2 0-.304-.18-.552-.4-.552-.22 0-.4-.236-.4-.525 0-.288-.36-.911-.8-1.383-.44-.472-.8-1.054-.8-1.292s-.36-.82-.8-1.292c-.44-.472-.8-1.095-.8-1.383 0-.289-.18-.525-.4-.525-.22 0-.4-.45-.4-1s-.18-1-.4-1c-.22 0-.4-.36-.4-.8 0-.44-.157-.8-.35-.8-.327 0-1.022-2.234-.904-2.9.03-.165-.126-.3-.346-.3-.22 0-.4-.54-.4-1.2 0-.66-.18-1.2-.4-1.2-.22 0-.4-.439-.4-.976 0-.537-.18-1.088-.4-1.224-.22-.136-.4-.777-.4-1.424 0-.647-.18-1.176-.4-1.176-.22 0-.4-.81-.4-1.8s-.18-1.8-.4-1.8c-.22 0-.4-.63-.4-1.4 0-1.367.038-1.4 1.6-1.4.88 0 1.6-.167 1.6-.371s.99-.495 2.2-.646c1.21-.151 2.2-.402 2.2-.557 0-.155.9-.526 2-.826 1.1-.3 2-.692 2-.872 0-.181.36-.328.8-.328.44 0 .8-.18.8-.4 0-.22.36-.4.8-.4.44 0 .8-.18.8-.4 0-.22.236-.4.525-.4.288 0 .873-.315 1.3-.7.426-.385 1.27-.955 1.875-1.268.605-.312 1.1-.717 1.1-.9 0-.182.268-.332.597-.332.328 0 .821-.36 1.096-.8.275-.44.728-.8 1.008-.8s2.219-1.71 4.309-3.8c2.09-2.09 3.978-3.8 4.195-3.8a.395.395 0 0 0 .395-.393c0-.356.446-.915 3-3.76.44-.49 1.025-1.286 1.3-1.769.275-.483.725-1.276 1-1.763.275-.486.725-1.129 1-1.428.275-.299.5-.891.5-1.316 0-.424.18-.771.4-.771.22 0 .4-.36.4-.8 0-.44.18-.8.4-.8.22 0 .4-.36.4-.8 0-.44.18-.8.4-.8.22 0 .4-.349.4-.776 0-.427.18-.888.4-1.024.22-.136.4-.597.4-1.024 0-.427.18-.776.4-.776.22 0 .4-.54.4-1.2 0-.66.18-1.2.4-1.2.22 0 .4-.54.4-1.2 0-.66.18-1.2.4-1.2.22 0 .4-.72.4-1.6 0-.88.18-1.6.4-1.6.22 0 .4-.9.4-2s.18-2 .4-2c.261 0 .4-6.525.4-18.776 0-12.087-.143-18.865-.4-19.024-.22-.136-.4-.557-.4-.935 0-.379-.36-.948-.8-1.265-.44-.317-.8-.82-.8-1.117 0-.67-.978-1.683-1.625-1.683-.264 0-.832-.405-1.261-.9l-.781-.9-19.466-.033C246.16.149 236.455.203 235.3.288M76.37 160.7l-.97 1.1 1.2-1c.66-.55 1.275-1.045 1.367-1.1.091-.055-.012-.1-.231-.1-.218 0-.833.495-1.366 1.1m-4.492 3.913c-.618.543-.964.987-.77.987.194 0 .775-.45 1.292-1 1.195-1.272.931-1.266-.522.013M352.6 290.9c-.095.275-.253 3.47-.35 7.1-.167 6.295-.546 9.874-1.418 13.4-.217.88-.572 2.32-.787 3.2-.919 3.751-1.269 4.959-2.259 7.8-1.507 4.325-6.675 14.773-7.486 15.133-.165.074-.3.311-.3.528 0 .378-2.282 3.923-2.793 4.339-.135.11-.684.83-1.221 1.6-3.34 4.796-10.292 11.782-15.986 16.064-5.004 3.764-13.337 8.736-14.641 8.736-.307 0-.56.135-.562.3-.004.352-1.935 1.3-2.65 1.3-1.508 0-.945 1.681 1.323 3.954 1.282 1.285 2.712 2.766 3.179 3.291.467.525 1.789 1.765 2.939 2.755 1.149.99 2.329 2.025 2.622 2.3.293.275.653.5.801.5.147 0 .745.495 1.329 1.1.583.605 1.555 1.355 2.16 1.668.605.312 1.1.717 1.1.9 0 .182.332.332.738.332.406 0 1.064.36 1.462.8.398.44.966.8 1.262.8.296 0 .538.18.538.4 0 .22.197.4.438.4s.946.361 1.567.803c.62.442 1.683.915 2.361 1.05.679.136 1.234.405 1.234.597 0 .193.36.35.8.35.44 0 .8.18.8.4 0 .22.45.4 1 .4s1 .18 1 .4c0 .22.36.4.8.4.44 0 .8.18.8.4 0 .22.36.4.8.4.44 0 .8.18.8.4 0 .22.54.4 1.2.4.66 0 1.2.18 1.2.4 0 .22.529.4 1.176.4.647 0 1.288.18 1.424.4.136.22.676.4 1.2.4.524 0 1.064.18 1.2.4.136.22.867.4 1.624.4.757 0 1.376.18 1.376.4 0 .22.864.4 1.92.4s2.145.225 2.42.5c.537.538 41.657 1.015 44.326.514 1.847-.346 6.405-4.92 6.753-6.776.504-2.684.023-43.357-.519-43.898-.275-.275-.5-1.285-.5-2.244 0-1.06-.157-1.646-.4-1.496-.238.147-.4-.329-.4-1.176 0-.783-.18-1.424-.4-1.424-.22 0-.4-.529-.4-1.176 0-.647-.18-1.288-.4-1.424-.22-.136-.4-.676-.4-1.2 0-.524-.18-1.064-.4-1.2-.22-.136-.4-.687-.4-1.224 0-.537-.18-.976-.4-.976-.22 0-.4-.54-.4-1.2 0-.66-.18-1.2-.4-1.2-.22 0-.4-.36-.4-.8 0-.44-.18-.8-.4-.8-.22 0-.4-.36-.4-.8 0-.44-.18-.8-.4-.8-.22 0-.4-.36-.4-.8 0-.44-.16-.8-.355-.8-.196 0-.472-.617-.613-1.371-.142-.754-.387-1.429-.545-1.5-.366-.164-1.667-2.309-1.958-3.229-.122-.385-.381-.7-.576-.7-.194 0-.353-.225-.353-.5-.001-.275-.451-1.023-1-1.662-.55-.639-1-1.302-1-1.472 0-.17-.231-.547-.513-.837-.282-.291-.949-1.159-1.481-1.929-.533-.77-1.292-1.691-1.687-2.047-.395-.356-.719-.75-.719-.877 0-.344-9.769-10.276-10.107-10.276-.161 0-1.034-.72-1.941-1.6-.907-.88-1.857-1.6-2.112-1.6-.255 0-.723-.36-1.04-.8-.317-.44-.762-.8-.988-.801-.227 0-1.042-.54-1.812-1.199s-1.625-1.199-1.9-1.199c-.275-.001-.5-.181-.5-.401 0-.22-.36-.4-.8-.4-.44 0-.8-.14-.8-.31 0-.171-.808-.666-1.796-1.1-.988-.435-1.798-.925-1.8-1.09-.002-.165-.364-.3-.804-.3-.44 0-.8-.18-.8-.4 0-.58-1.593-.492-1.8.1" fill="#1599df"/><path d="M47.353 274c.092 10.89.356 22.23.588 25.2.762 9.8 3.104 20.18 5.706 25.295.194.382.353.877.353 1.101 0 .75 4.226 8.967 6.333 12.313 8.292 13.169 20.814 24.281 34.608 30.709 1.727.805 3.507 1.83 3.956 2.279.781.781 5.008 2.568 7.103 3.003.55.114 1.18.348 1.4.52.22.171 1.705.44 3.3.598 1.595.157 2.9.442 2.9.634 0 .191 1.181.348 2.624.348 1.647 0 2.531.149 2.376.4-.163.263 3.658.4 11.162.4h11.41l.114-30.7c.113-30.394.123-30.718.969-32.549 4.266-9.226 16.831-9.745 21.358-.883l.987 1.932.107 31.1.107 31.1H188.4v-61.577l.936-2.112c1.059-2.387 3.554-4.845 6.015-5.925 2.034-.892 8.017-1.484 8.42-.833.152.246.626.447 1.053.447.427 0 .776.18.776.4 0 .22.256.4.568.4.74 0 4.232 3.492 4.232 4.232 0 .312.18.568.4.568.22 0 .4.349.4.776 0 .427.18.888.4 1.024.261.161.4 11.071.4 31.424V376.8h22.8v-30.127c0-33.361-.061-32.506 2.585-35.972 2.343-3.068 5.612-4.685 9.496-4.695 2.149-.006 2.736.14 5.728 1.426 1.814.779 4.139 3.306 5.225 5.68l.966 2.112V376.8h11.12c6.154 0 11.29-.163 11.5-.365.209-.2 1.37-.454 2.58-.563 1.21-.11 3.19-.407 4.4-.66 1.21-.254 2.65-.521 3.2-.593.55-.072 1.45-.31 2-.527.55-.218 1.18-.441 1.4-.495a19.339 19.339 0 0 0 2.519-.83c.505-.202 1.193-.367 1.528-.367.696 0 1.485-.703 1.839-1.637.132-.35.932-.962 1.777-1.36 1.313-.618 4.74-2.304 8.034-3.954.493-.247.898-.584.9-.749.002-.165.181-.3.399-.3.406 0 6.044-3.499 6.404-3.974.11-.146.83-.697 1.6-1.226.77-.529 1.67-1.244 2-1.588.33-.345 1.589-1.433 2.799-2.419 2.68-2.186 3.165-2.672 6.195-6.203 1.317-1.534 2.496-2.88 2.619-2.99.124-.11.658-.83 1.187-1.6.529-.77 1.069-1.49 1.2-1.6.131-.11.671-.83 1.2-1.6.529-.77 1.06-1.49 1.181-1.6.387-.353 1.661-2.577 1.89-3.3.122-.385.381-.7.576-.7.194 0 .357-.225.362-.5.005-.275.361-.95.791-1.5.43-.55.786-1.315.791-1.7.005-.385.189-.7.409-.7.22 0 .4-.245.4-.544 0-.299.531-1.604 1.179-2.9.649-1.296 1.755-4.066 2.459-6.156 1.231-3.656 1.539-4.701 2.417-8.2 1.119-4.462 2.326-14.332 2.337-19.1.005-2.328.169-3.9.408-3.9.26 0 .4-5.933.4-17s-.14-17-.4-17c-.22 0-.4.451-.4 1.002 0 3.862-6.958 21.798-8.456 21.798-.189 0-.344.236-.344.525 0 .288-.36.911-.8 1.383-.44.472-.8.976-.8 1.12 0 1.232-11.373 12.607-13.33 13.333-.238.088-.791.493-1.227.9-.437.406-1.015.739-1.285.739s-.551.158-.625.35c-.208.547-6.665 3.904-9.333 4.853-1.32.47-2.76 1.001-3.2 1.18-.717.292-1.505.518-5 1.436-3.249.853-6.288 1.1-13.8 1.121-7.92.022-9.816-.152-14.6-1.342a83.523 83.523 0 0 0-2.905-.669c-.608-.122-1.203-.38-1.324-.575-.12-.195-.57-.354-1-.354a3.88 3.88 0 0 1-1.476-.353 428.135 428.135 0 0 0-4.695-2.261c-9.395-4.48-17.127-11.261-23.33-20.464-.918-1.363-1.67-2.668-1.67-2.9a.413.413 0 0 0-.4-.422c-.22 0-.4-.345-.4-.767 0-.421-.135-.826-.3-.9-.288-.128-1.821-3.153-2.551-5.033a96.548 96.548 0 0 0-.723-1.8c-.205-.495-.588-1.62-.851-2.5a46.311 46.311 0 0 0-.826-2.519c-.192-.505-.349-1.324-.349-1.82 0-1.92 1.169-1.861-36.826-1.861h-35.866l-.699 2.9c-5.018 20.818-23.892 38.694-45.009 42.628-6.042 1.126-7.397 1.272-11.8 1.272-13.702 0-28.372-5.539-38.424-14.508-7.114-6.349-16.176-19.347-16.176-23.204 0-.29-.149-.699-.33-.908-.383-.44-1.043-2.607-2.444-8.026-.234-.906-.426-2.177-.426-2.824 0-.647-.273-1.526-.607-1.954-.545-.696-.59 1.263-.44 19.024" fill="#bfe7f7"/><path d="M102.039 236.872c-5.087 1.953-8.274 7.627-7.198 12.815 2.428 11.704 18.308 12.996 22.393 1.821 3.365-9.207-5.956-18.185-15.195-14.636m188.761-.62c-7.046 2.698-10.344 8.935-8.047 15.218 2.473 6.767 9.27 9.632 16.075 6.778 3.55-1.489 6.772-6.462 6.772-10.452 0-7.186-8.62-13.91-14.8-11.544" fill="#54555d"/><path d="M47.228 251.8c-.001 1.495.219 2.693.585 3.176.323.428.587 1.307.587 1.954s.194 1.918.432 2.824c1.06 4.042 1.302 4.93 1.704 6.246.235.77.571 1.571.746 1.78.175.209.318.609.318.888 0 .741 2.022 5.044 2.258 4.807.111-.11-.083-.75-.43-1.42-1.972-3.815-4.301-12.191-4.849-17.442-.435-4.17-1.347-6.068-1.351-2.813m304.647 2.9c-.095.165-.302 1.2-.459 2.3-.674 4.719-2.991 12.298-4.681 15.312-.404.722-.735 1.577-.735 1.9 0 .323-.159.588-.353.588-.195 0-.457.315-.583.7-1.398 4.272-10.555 14.914-16.264 18.901-.77.537-1.749 1.297-2.175 1.688-.427.391-1.012.711-1.3.711-.289 0-.526.135-.528.3-.003.319-.031.335-5.072 2.845-5.179 2.578-10.436 4.221-17.949 5.608-3.077.567-13.046.581-15.845.021a494.006 494.006 0 0 0-4.331-.841c-15.459-2.914-32.327-15.315-38.81-28.533-.324-.66-.679-1.29-.79-1.4-.481-.478-2.545-5.356-3.555-8.4-1.504-4.533-1.645-5.039-1.645-5.886 0-1.327.379-1.314-37.433-1.314H163.2l.046.9c.035.677.092.727.23.2.172-.66 2.228-.7 36.073-.7 38.022 0 36.851-.059 36.851 1.861 0 .496.157 1.315.349 1.82.192.506.564 1.639.826 2.519.263.88.646 2.005.851 2.5.206.495.531 1.305.723 1.8.73 1.88 2.263 4.905 2.551 5.033.165.074.3.479.3.9 0 .422.18.767.4.767.22 0 .4.19.4.422 0 .232.752 1.537 1.67 2.9 6.203 9.203 13.935 15.984 23.33 20.464 2.2 1.049 4.313 2.066 4.695 2.261a3.88 3.88 0 0 0 1.476.353c.43 0 .88.159 1 .354.121.195.716.453 1.324.575.608.122 1.915.423 2.905.669 4.784 1.19 6.68 1.364 14.6 1.342 7.512-.021 10.551-.268 13.8-1.121 3.495-.918 4.283-1.144 5-1.436.44-.179 1.88-.71 3.2-1.18 2.668-.949 9.125-4.306 9.333-4.853.074-.192.355-.35.625-.35s.848-.333 1.285-.739c.436-.407.989-.812 1.227-.9 1.957-.726 13.33-12.101 13.33-13.333 0-.144.36-.648.8-1.12.44-.472.8-1.095.8-1.383 0-.289.155-.525.344-.525 1.498 0 8.456-17.936 8.456-21.798 0-.551.18-1.002.4-1.002.22 0 .4-.45.4-1 0-.943-.547-1.357-.925-.7m-189.187 7.033c-.158.403-.277 1.123-.263 1.6.024.823.046.817.415-.108.214-.536.333-1.256.263-1.6-.104-.514-.178-.495-.415.108m-.796 2.909c-.161.16-.292.701-.292 1.201 0 .5-.18 1.021-.4 1.157-.22.136-.4.515-.4.843 0 .328-.36 1.341-.8 2.251-.44.911-.8 1.877-.8 2.148 0 .27-.135.551-.3.625-.165.073-.742 1.033-1.283 2.133-2.978 6.061-10.655 15.206-15.617 18.603-.77.527-1.49 1.069-1.6 1.204-1.281 1.574-10.309 6.194-15.6 7.984-9.377 3.172-20.891 3.961-29.4 2.013-7.229-1.655-11.701-3.222-16.17-5.669-1.667-.912-3.434-1.856-3.927-2.097-.493-.241-.898-.573-.9-.738-.002-.165-.194-.3-.426-.3-.718 0-4.926-3.428-8.348-6.8-2.987-2.943-4.773-4.994-6.441-7.4-.764-1.1-1.523-2.06-1.688-2.133-.165-.074-.3-.311-.3-.528 0-.217-.51-1.147-1.133-2.067-.623-.92-1.257-2.013-1.409-2.429-.152-.417-.387-.648-.521-.513-.596.596 5.582 9.63 9.207 13.463 9.696 10.249 20.154 15.637 35.68 18.379 3.128.552 11.238.551 14.352-.003 5.762-1.024 7.025-1.313 10.624-2.428 14.072-4.358 27.173-15.177 33.917-28.007 2.72-5.177 5.284-12.202 3.975-10.892M47.647 299.233c.026 2.292.184 4.707.351 5.367.167.66.211-1.14.097-4-.25-6.304-.513-7.105-.448-1.367m303.765 3.379c-.157 1.676-.196 3.138-.086 3.248.11.11.329-1.172.486-2.848.157-1.676.195-3.138.085-3.248-.11-.11-.328 1.172-.485 2.848M48.475 307.4c-.01.88.136 1.96.325 2.4.453 1.053.453-1.021 0-2.8-.292-1.147-.306-1.129-.325.4M201 306.274c.66.085 1.56.31 2 .499 3.24 1.398 3.975 1.829 5.187 3.04.751.752 1.665 2.046 2.03 2.877.366.83.828 1.87 1.029 2.31.205.452.406 14.11.461 31.4l.098 30.6.098-31.276c.063-20.526-.04-31.362-.303-31.524-.22-.136-.4-.597-.4-1.024 0-.427-.18-.776-.4-.776-.22 0-.4-.256-.4-.568 0-.313-.824-1.393-1.832-2.4-1.007-1.008-2.087-1.832-2.4-1.832-.312 0-.568-.18-.568-.4 0-.22-.349-.4-.776-.4-.427 0-.888-.18-1.024-.4-.136-.22-1.092-.373-2.124-.34-1.268.04-1.487.11-.676.214m41.997.274c-3.596 1.352-6.552 4.458-7.6 7.986-.717 2.414-.92 62.749-.209 62.038.242-.242.43-12.043.5-31.38l.112-30.992 1.044-1.6c5.036-7.721 14.628-8.11 19.61-.796 1.713 2.515 1.685 2.017 1.927 34.396l.231 30.8.094-30.888.094-30.888-.966-2.112c-.532-1.162-1.653-2.798-2.491-3.636-1.415-1.415-2.04-1.788-5.062-3.02-1.391-.567-5.675-.513-7.284.092m-94.893.875c-3.289 1.639-6.887 6.418-6.394 8.494.11.465.258.3.464-.517 1.079-4.297 3.988-7.167 8.626-8.512 1.214-.352 1.264-.412.379-.447-.562-.023-1.946.419-3.075.982m7.496-.451c3.436.91 5.656 2.626 7.541 5.828l1.059 1.8.212 31.2.212 31.2-.012-31.2-.012-31.2-.987-1.932c-1.707-3.342-5.811-6.302-8.613-6.212-1.044.034-.966.101.6.516m39.745.197c-2.806 1.274-6.808 5.502-5.986 6.324.12.12.383-.216.585-.746.912-2.398 4.167-4.854 7.656-5.776 1.565-.414 1.643-.481.6-.515-.66-.021-1.945.3-2.855.713m155.331.441c-.146.545-.248 1.53-.227 2.19.031.957.11.836.393-.6.387-1.967.26-3.183-.166-1.59m-301.42 3.99c0 .55.155 1.36.344 1.8.313.729.344.712.344-.2 0-.55-.155-1.36-.344-1.8-.313-.729-.344-.712-.344.2m300.532 1.1c-.293 1.414-.955 3.833-1.659 6.053-.306.965-.48 1.83-.387 1.923.093.093.478-.876.855-2.154.377-1.277.831-2.772 1.01-3.322.448-1.376.812-3.6.591-3.6-.101 0-.285.495-.41 1.1m-161.1 1.833c-.158.403-.272 1.303-.252 2l.036 1.267.386-1.34c.453-1.575.314-3.158-.17-1.927m-138.682.433c-.01 1.304 3.455 11.058 5.168 14.547.894 1.822 1.626 3.409 1.626 3.528 0 .118.54 1 1.2 1.959.66.959 1.2 1.937 1.2 2.172 0 .235.18.428.4.428.22 0 .4.193.4.428 0 .392 1.868 3.3 3.06 4.763.272.335 1.306 1.689 2.296 3.009 3.403 4.534 10.523 11.438 15.044 14.586.77.537 1.49 1.086 1.6 1.221.327.402 3.923 2.793 4.2 2.793.141 0 1.027.531 1.97 1.179.942.649 3.495 2.028 5.672 3.067 2.177 1.038 4.299 2.172 4.716 2.52.648.541.731.546.568.034-.104-.33-2.17-1.59-4.59-2.8-14.841-7.421-25.865-17.249-34.203-30.491C58.226 334.563 54 326.346 54 325.596c0-.224-.159-.719-.353-1.101-1.077-2.117-2.842-7.353-2.853-8.461-.01-1-.78-2.045-.788-1.068M141.39 347c0 16.5.049 23.308.11 15.13.06-8.179.06-21.679 0-30-.061-8.322-.11-1.63-.11 14.87m205.287-23.923c-.377 1.016-.598 1.936-.49 2.043.107.107.305-.146.441-.563a58.83 58.83 0 0 1 .663-1.87c.229-.612.339-1.19.244-1.286-.095-.095-.481.659-.858 1.676m-9.385 17.952c-.495.754-.82 1.371-.723 1.371.278 0 1.935-2.429 1.77-2.594-.082-.082-.553.468-1.047 1.223m-2.4 3.2c-.495.754-.82 1.371-.723 1.371.278 0 1.935-2.429 1.77-2.594-.082-.082-.553.468-1.047 1.223m-3.826 4.63c-1.284 1.508-2.251 2.741-2.149 2.741.288 0 4.8-5.219 4.632-5.358-.082-.068-1.199 1.11-2.483 2.617m-8.026 7.781c-.854.76-1.481 1.452-1.395 1.539.087.086.846-.474 1.688-1.246.842-.771 1.47-1.464 1.395-1.538-.075-.075-.834.485-1.688 1.245m-8.557 6.387c-.492.344-1.387.883-1.989 1.197-.602.314-.865.572-.585.574.489.002 3.691-1.95 3.691-2.251 0-.251-.192-.168-1.117.48m-4.883 3.017c-.55.454-.774.709-.499.566 2.305-1.191 2.625-1.404 2.099-1.399-.33.004-1.05.378-1.6.833m-5.199 2.504c-1.87.937-3.417 1.962-3.439 2.278-.021.315.029.387.113.157.083-.229 1.811-1.253 3.838-2.276 2.028-1.023 3.507-1.86 3.287-1.861-.22 0-1.93.766-3.799 1.702" fill="#98d2f4"/>
    </g>
</svg>